<?xml version="1.0" encoding="utf-8"?>
<!-- Generator: Adobe Illustrator 16.0.0, SVG Export Plug-In . SVG Version: 6.00 Build 0)  -->
<!DOCTYPE svg PUBLIC "-//W3C//DTD SVG 1.1//EN" "http://www.w3.org/Graphics/SVG/1.1/DTD/svg11.dtd" [
	<!ENTITY st0 "fill:#FFFFFF;">
]>
<svg version="1.1" id="logos" xmlns="http://www.w3.org/2000/svg" xmlns:xlink="http://www.w3.org/1999/xlink" x="0px" y="0px"
	 width="44px" height="44px" viewBox="0 0 44 44" style="enable-background:new 0 0 44 44;" xml:space="preserve">
<g>
	<path d="M22,42.95C10.448,42.95,1.05,33.552,1.05,22S10.448,1.05,22,1.05S42.95,10.448,42.95,22S33.552,42.95,22,42.95z"/>
	<path style="&st0;" d="M22,2.1c10.973,0,19.9,8.927,19.9,19.9S32.973,41.9,22,41.9S2.1,32.973,2.1,22S11.027,2.1,22,2.1 M22,0
		C9.85,0,0,9.85,0,22s9.85,22,22,22s22-9.85,22-22S34.15,0,22,0L22,0z"/>
</g>
<path style="&st0;" d="M20.21,28.076c0.021,0.14,0.021,0.32,0.021,0.53c0,0.149,0,0.279-0.011,0.39c-0.01,0.11-0.02,0.21-0.05,0.29
	c-0.02,0.08-0.05,0.16-0.09,0.22c-0.04,0.07-0.1,0.15-0.19,0.24c-0.1,0.09-0.29,0.23-0.59,0.42c-0.29,0.19-0.66,0.38-1.1,0.561
	c-0.44,0.18-0.95,0.329-1.521,0.46c-0.569,0.119-1.189,0.189-1.87,0.189c-1.159,0-2.22-0.2-3.159-0.59
	c-0.94-0.39-1.74-0.96-2.4-1.72c-0.67-0.761-1.18-1.7-1.53-2.82c-0.359-1.11-0.54-2.4-0.54-3.86c0-1.489,0.19-2.819,0.58-3.979
	c0.38-1.17,0.92-2.16,1.62-2.97c0.69-0.811,1.521-1.431,2.49-1.86s2.04-0.64,3.22-0.64c0.521,0,1.03,0.05,1.521,0.149
	c0.489,0.09,0.939,0.22,1.359,0.37c0.42,0.14,0.79,0.32,1.11,0.51c0.33,0.2,0.55,0.351,0.67,0.48c0.13,0.13,0.21,0.22,0.25,0.28
	c0.04,0.069,0.07,0.149,0.09,0.229c0.021,0.09,0.04,0.2,0.05,0.32c0.021,0.12,0.03,0.26,0.03,0.43c0,0.18-0.01,0.34-0.03,0.47
	c-0.02,0.13-0.05,0.24-0.09,0.33c-0.03,0.09-0.08,0.15-0.13,0.19s-0.11,0.06-0.189,0.06c-0.131,0-0.311-0.09-0.54-0.27
	c-0.24-0.181-0.54-0.38-0.9-0.59c-0.37-0.221-0.82-0.42-1.35-0.601c-0.521-0.18-1.15-0.27-1.891-0.27c-0.8,0-1.53,0.16-2.189,0.479
	c-0.65,0.32-1.221,0.79-1.681,1.41c-0.47,0.62-0.83,1.38-1.09,2.271c-0.25,0.89-0.38,1.92-0.38,3.069c0,1.141,0.12,2.141,0.37,3.021
	s0.6,1.609,1.06,2.2c0.46,0.579,1.03,1.029,1.7,1.329c0.67,0.301,1.43,0.45,2.28,0.45c0.72,0,1.34-0.09,1.88-0.26
	c0.54-0.18,0.99-0.37,1.37-0.59s0.689-0.42,0.93-0.59c0.24-0.181,0.431-0.271,0.57-0.271c0.07,0,0.12,0.021,0.17,0.04
	c0.05,0.03,0.08,0.09,0.11,0.16C20.18,27.826,20.2,27.937,20.21,28.076z"/>
<path style="&st0;" d="M36.67,13.526c-0.01,0.13-0.05,0.29-0.13,0.5l-5.86,16.71c-0.04,0.1-0.09,0.18-0.16,0.25
	c-0.06,0.06-0.149,0.109-0.27,0.149c-0.11,0.04-0.26,0.061-0.44,0.08c-0.18,0.011-0.409,0.021-0.68,0.021
	c-0.2,0-0.38-0.01-0.53-0.01c-0.159-0.011-0.29-0.021-0.399-0.03c-0.11-0.021-0.2-0.04-0.28-0.07c-0.08-0.02-0.15-0.05-0.21-0.09
	c-0.05-0.04-0.09-0.08-0.13-0.13c-0.03-0.05-0.061-0.11-0.09-0.19l-5.88-16.71c-0.07-0.2-0.11-0.37-0.12-0.49
	c0-0.13,0.04-0.22,0.12-0.289c0.09-0.061,0.22-0.101,0.399-0.12c0.19-0.021,0.44-0.03,0.76-0.03c0.25,0,0.461,0.01,0.61,0.02
	c0.16,0.021,0.28,0.04,0.36,0.08c0.08,0.03,0.14,0.08,0.189,0.141c0.04,0.06,0.08,0.14,0.11,0.229l5.16,15.141h0.02l5.011-15.11
	c0.029-0.1,0.06-0.18,0.1-0.25c0.04-0.061,0.1-0.12,0.2-0.15c0.09-0.04,0.22-0.06,0.39-0.08c0.16-0.01,0.39-0.02,0.66-0.02
	c0.29,0,0.52,0.01,0.68,0.04c0.17,0.02,0.28,0.06,0.351,0.13C36.67,13.306,36.69,13.406,36.67,13.526z"/>
</svg>
