<?xml version="1.0" encoding="utf-8"?>
<!-- Generator: Adobe Illustrator 16.0.0, SVG Export Plug-In . SVG Version: 6.00 Build 0)  -->
<!DOCTYPE svg PUBLIC "-//W3C//DTD SVG 1.1//EN" "http://www.w3.org/Graphics/SVG/1.1/DTD/svg11.dtd">
<svg version="1.1" id="logos" xmlns="http://www.w3.org/2000/svg" xmlns:xlink="http://www.w3.org/1999/xlink" x="0px" y="0px"
	 width="44px" height="44px" viewBox="0 0 44 44" style="enable-background:new 0 0 44 44;" xml:space="preserve">
<g>
	<path d="M22,42.95C10.448,42.95,1.05,33.552,1.05,22S10.448,1.05,22,1.05S42.95,10.448,42.95,22S33.552,42.95,22,42.95z"/>
	<path style="fill:#FFFFFF;" d="M22,2.1c10.973,0,19.9,8.927,19.9,19.9S32.973,41.9,22,41.9S2.1,32.973,2.1,22S11.027,2.1,22,2.1
		 M22,0C9.85,0,0,9.85,0,22s9.85,22,22,22s22-9.85,22-22S34.15,0,22,0L22,0z"/>
</g>
<rect x="11.354" y="17.602" style="fill:#FFFFFF;" width="4.813" height="12.625"/>
<ellipse style="fill:#FFFFFF;" cx="13.761" cy="13.332" rx="2.406" ry="2.227"/>
<path style="fill:#FFFFFF;" d="M19.313,17.602v12.625h4.833c0,0,0-5.605,0-6.835c0-1.005,0.511-2.333,1.995-2.333
	c1.297,0,1.672,0.766,1.672,2.25c0,1.313,0,6.918,0,6.918h4.813c0,0,0-6.23,0-8.543s-1.313-4.417-4.125-4.417
	c-2.672,0-3.781,1.323-4.703,2.401c0-0.792-0.005-2.066-0.005-2.066H19.313z"/>
</svg>
