<?xml version="1.0" encoding="utf-8"?>
<!-- Generator: Adobe Illustrator 16.0.0, SVG Export Plug-In . SVG Version: 6.00 Build 0)  -->
<!DOCTYPE svg PUBLIC "-//W3C//DTD SVG 1.1//EN" "http://www.w3.org/Graphics/SVG/1.1/DTD/svg11.dtd">
<svg version="1.1" id="logos" xmlns="http://www.w3.org/2000/svg" xmlns:xlink="http://www.w3.org/1999/xlink" x="0px" y="0px"
	 width="44px" height="44px" viewBox="0 0 44 44" style="enable-background:new 0 0 44 44;" xml:space="preserve">
<g>
	<path d="M22,42.95C10.448,42.95,1.05,33.552,1.05,22S10.448,1.05,22,1.05S42.95,10.448,42.95,22S33.552,42.95,22,42.95z"/>
	<path style="fill:#FFFFFF;" d="M22,2.1c10.973,0,19.9,8.927,19.9,19.9S32.973,41.9,22,41.9S2.1,32.973,2.1,22S11.027,2.1,22,2.1
		 M22,0C9.85,0,0,9.85,0,22s9.85,22,22,22s22-9.85,22-22S34.15,0,22,0L22,0z"/>
</g>
<g>
	<path style="fill:#FFFFFF;" d="M33.12,13.216c0.55,0,1,0.45,1,1v15.57c0,0.55-0.45,1-1,1H10.84c-0.55,0-1-0.45-1-1v-15.57
		c0-0.55,0.45-1,1-1H33.12z"/>
</g>
<polygon points="13.5,15.559 30.516,15.559 21.988,22.996 "/>
<polygon points="32.151,16.764 32.151,27.707 25.922,22.224 "/>
<polygon points="11.859,27.707 11.859,16.764 18.088,22.248 "/>
<path d="M24.44,23.526l5.829,5.25H13.75l5.85-5.25l1.753,1.501c0.17,0.159,0.4,0.26,0.66,0.26s0.49-0.101,0.66-0.26L24.44,23.526z"
	/>
</svg>
