<?xml version="1.0" encoding="utf-8"?>
<!-- Generator: Adobe Illustrator 16.0.0, SVG Export Plug-In . SVG Version: 6.00 Build 0)  -->
<!DOCTYPE svg PUBLIC "-//W3C//DTD SVG 1.1//EN" "http://www.w3.org/Graphics/SVG/1.1/DTD/svg11.dtd">
<svg version="1.1" id="logos" xmlns="http://www.w3.org/2000/svg" xmlns:xlink="http://www.w3.org/1999/xlink" x="0px" y="0px"
	 width="44px" height="44px" viewBox="0 0 44 44" style="enable-background:new 0 0 44 44;" xml:space="preserve">
<g>
	<path d="M22,42.95C10.448,42.95,1.05,33.552,1.05,22S10.448,1.05,22,1.05S42.95,10.448,42.95,22S33.552,42.95,22,42.95z"/>
	<path style="fill:#FFFFFF;" d="M22,2.1c10.973,0,19.9,8.927,19.9,19.9S32.973,41.9,22,41.9S2.1,32.973,2.1,22S11.027,2.1,22,2.1
		 M22,0C9.85,0,0,9.85,0,22s9.85,22,22,22s22-9.85,22-22S34.15,0,22,0L22,0z"/>
</g>
<g id="vimeo">
	<path style="fill:#FFFFFF;" d="M9.938,17.887c0,0,4.531-5.594,7.547-5.594c2.01,0,2.576,2.349,3.219,6.375
		c0.516,3.234,1.561,6.643,2.154,6.643c0.877,0,1.859-1.42,2.705-2.822c0.813-1.347,1.338-2.665,1.338-3.301
		c0-1.757-1.176-2.694-3.322-1.535c0.25-2.391,2.672-5.516,6.5-5.516c3.094,0,3.605,2.707,3.605,3.566s0.023,4.699-5.09,10.949
		C25.5,30.434,22.5,32.84,20.906,32.84c-1.938,0-3.213-1.98-3.941-4.259c-0.652-2.037-1.531-4.84-2.211-7.15
		c-0.71-2.411-0.932-3.388-1.77-3.388c-0.969,0-2.047,0.938-2.047,0.938L9.938,17.887z"/>
</g>
</svg>
